<svg width="38" height="38" viewBox="0 0 38 38" fill="none" xmlns="http://www.w3.org/2000/svg">
<path d="M19.0003 0.666687C15.3743 0.666687 11.8298 1.74192 8.81488 3.75641C5.79998 5.7709 3.45015 8.63418 2.06254 11.9842C0.674936 15.3341 0.311875 19.0204 1.01927 22.5767C1.72667 26.133 3.47275 29.3997 6.03671 31.9636C8.60067 34.5276 11.8674 36.2737 15.4237 36.9811C18.98 37.6885 22.6662 37.3254 26.0162 35.9378C29.3662 34.5502 32.2294 32.2004 34.2439 29.1855C36.2584 26.1706 37.3337 22.626 37.3337 19C37.3337 16.5925 36.8595 14.2085 35.9381 11.9842C35.0168 9.75985 33.6664 7.7388 31.964 6.0364C30.2615 4.33399 28.2405 2.98357 26.0162 2.06223C23.7919 1.14089 21.4079 0.666687 19.0003 0.666687ZM17.9003 23.9684L12.0153 18.0834L13.8487 16.25L17.9003 20.4667L24.592 13.775L26.3337 15.6084L17.9003 23.9684Z" fill="white"/>
</svg>
