<svg width="44" height="44" viewBox="0 0 44 44" fill="none" xmlns="http://www.w3.org/2000/svg">
<path d="M22.0003 3.66669C18.3743 3.66669 14.8298 4.74192 11.8149 6.75641C8.79998 8.7709 6.45015 11.6342 5.06254 14.9842C3.67494 18.3341 3.31187 22.0204 4.01927 25.5767C4.72667 29.133 6.47275 32.3997 9.03671 34.9636C11.6007 37.5276 14.8674 39.2737 18.4237 39.9811C21.98 40.6885 25.6662 40.3254 29.0162 38.9378C32.3662 37.5502 35.2294 35.2004 37.2439 32.1855C39.2584 29.1706 40.3337 25.626 40.3337 22C40.3337 19.5925 39.8595 17.2085 38.9381 14.9842C38.0168 12.7599 36.6664 10.7388 34.964 9.0364C33.2615 7.33399 31.2405 5.98357 29.0162 5.06223C26.7919 4.14089 24.4079 3.66669 22.0003 3.66669ZM22.0003 31.1667C21.6667 31.1667 21.3406 31.0678 21.0633 30.8824C20.7859 30.6971 20.5697 30.4337 20.4421 30.1255C20.3144 29.8173 20.281 29.4781 20.3461 29.151C20.4112 28.8238 20.5718 28.5233 20.8077 28.2874C21.0436 28.0515 21.3441 27.8908 21.6713 27.8258C21.9985 27.7607 22.3376 27.7941 22.6458 27.9217C22.954 28.0494 23.2174 28.2656 23.4027 28.543C23.5881 28.8203 23.687 29.1464 23.687 29.48C23.687 29.9274 23.5093 30.3564 23.193 30.6727C22.8767 30.989 22.4477 31.1667 22.0003 31.1667ZM23.082 24.695H20.9187L20.2587 12.8334H23.8337L23.082 24.695Z" fill="white"/>
</svg>
